<svg width="64" height="65" viewBox="0 0 64 65" fill="none" xmlns="http://www.w3.org/2000/svg">
<path d="M12.957 31.9952C12.957 42.4909 21.4997 51.0431 32.0049 51.0431C42.5102 51.0431 51.0528 42.5004 51.0528 31.9952C51.0528 21.4899 42.5102 12.9473 32.0049 12.9473C21.4997 12.9473 12.957 21.4899 12.957 31.9952ZM45.2787 30.8384C45.914 38.1675 40.4907 44.6337 33.1711 45.269C25.8421 45.9137 19.3853 40.4809 18.7406 33.1614C18.0959 25.8323 23.5192 19.3756 30.8482 18.7403C38.1772 18.0861 44.6435 23.5094 45.2787 30.8384Z" fill="black"/>
<path d="M58.1162 42.5197L61.264 42.3965C61.994 42.368 62.7525 41.7612 62.9517 41.0596L63.9851 36.0724C64.0894 35.3424 63.6343 34.4891 62.9801 34.1667L60.1452 32.7919C59.4815 32.4696 58.9411 31.6068 58.9316 30.8767C58.9316 30.8767 58.9316 30.5069 58.8557 29.6536C58.8273 29.3597 58.8273 29.3597 58.8273 29.3597C58.7894 29.0373 59.2634 28.4495 59.8797 28.0608L62.5534 26.3731C63.1697 25.9844 63.53 25.0836 63.3404 24.3725L61.7665 19.5371C61.4915 18.8544 60.6761 18.3425 59.9461 18.3899L56.7888 18.6174C56.0588 18.6743 55.1865 18.2666 54.8546 17.7262C54.5228 17.1857 53.8401 15.2895 54.1815 14.6448L55.6511 11.8573C55.9924 11.203 55.8502 10.2549 55.3287 9.73345L51.5362 6.33915C50.9578 5.88405 49.9907 5.84612 49.3839 6.25382L46.7671 8.02681C46.1603 8.43451 45.2122 8.52932 44.6528 8.22592C44.1029 7.92252 42.5574 6.6141 42.529 5.88404L42.4057 2.73626C42.3773 2.0062 41.7705 1.2477 41.0688 1.04859L36.0817 0.0151308C35.3516 -0.0891633 34.4983 0.356457 34.1854 1.02015L32.8106 3.85505C32.4883 4.51874 31.6255 5.06865 30.8954 5.07814C30.8954 5.07814 30.5257 5.08762 29.6723 5.15399C29.3689 5.18243 29.3689 5.18243 29.3689 5.18243C29.0466 5.22035 28.4587 4.74629 28.07 4.13001L26.3823 1.45629C25.9936 0.840003 25.0929 0.479712 24.3818 0.669338L19.5463 2.25271C18.8637 2.52767 18.3517 3.34306 18.3991 4.07312L18.6266 7.23039C18.6741 7.96044 18.2758 8.83272 17.7354 9.16457C17.195 9.49641 15.2987 10.1791 14.654 9.83774L11.857 8.36814C11.2123 8.02681 10.2547 8.16903 9.73321 8.6905L6.33891 12.483C5.8838 13.0614 5.84588 14.0285 6.26306 14.6353L8.03605 17.2521C8.44375 17.8589 8.53856 18.807 8.22568 19.3664C7.92228 19.9258 6.61386 21.4618 5.8838 21.4902L2.73602 21.6135C2.00596 21.6419 1.24746 22.2487 1.04835 22.9504L0.0148894 27.9375C-0.0894047 28.6581 0.365696 29.5209 1.0199 29.8432L3.85481 31.218C4.5185 31.5404 5.05893 32.4032 5.06841 33.1333C5.06841 33.1333 5.07789 33.503 5.15375 34.3563C5.18219 34.6597 5.18219 34.6597 5.18219 34.6597C5.22011 34.9821 4.74605 35.5699 4.12977 35.9587L1.45604 37.6463C0.839761 38.0351 0.479473 38.9358 0.669098 39.6469L2.25247 44.4823C2.52743 45.165 3.34282 45.677 4.07288 45.6296L7.23015 45.402C7.96021 45.3451 8.83248 45.7528 9.16433 46.2933C9.49617 46.8337 10.1788 48.73 9.8375 49.3747L8.3679 52.1622C8.02657 52.8164 8.16879 53.7645 8.69026 54.286L12.4828 57.6803C13.0611 58.1354 14.0282 58.1733 14.635 57.7561L17.2519 55.9831C17.8587 55.566 18.8068 55.4806 19.3662 55.7935C19.9161 56.0969 21.4616 57.4053 21.49 58.1354L21.6133 61.2832C21.6417 62.0132 22.2485 62.7717 22.9501 62.9708L27.9373 64.0043C28.6673 64.1086 29.5206 63.6535 29.843 62.9993L31.2178 60.1644C31.5402 59.5007 32.403 58.9603 33.133 58.9413C33.133 58.9413 33.5028 58.9413 34.3561 58.8654C34.65 58.837 34.65 58.837 34.65 58.837C34.9724 58.7896 35.5602 59.2637 35.949 59.8894L37.6366 62.5631C38.0254 63.1889 38.9261 63.5397 39.6372 63.3501L44.4726 61.7667C45.1553 61.5012 45.6673 60.6764 45.6199 59.9463L45.3923 56.7891C45.3354 56.059 45.7431 55.1867 46.2835 54.8549C46.824 54.523 48.7202 53.8404 49.365 54.1817L52.1525 55.6513C52.7972 55.9926 53.7548 55.8504 54.2763 55.3289L57.6706 51.5364C58.1257 50.9581 58.1636 49.991 57.7464 49.3842L55.9734 46.7673C55.5657 46.1605 55.4709 45.2124 55.7743 44.653C56.0777 44.0936 57.3861 42.5482 58.1162 42.5197ZM32.0047 53.6982C20.0394 53.6982 10.3021 43.9609 10.3021 31.9955C10.3021 20.0301 20.0394 10.2928 32.0047 10.2928C43.9701 10.2928 53.7074 20.0301 53.7074 31.9955C53.7074 43.9609 43.9701 53.6982 32.0047 53.6982Z" fill="black"/>
<path fill-rule="evenodd" clip-rule="evenodd" d="M27.5412 23.6802C26.3801 24.7962 25.6472 26.3228 25.5997 28.0148C25.5948 28.1803 25.7313 28.3143 25.9034 28.3143H27.3276C27.4908 28.3143 27.6253 28.1898 27.6312 28.0329C27.7716 24.185 32.6494 22.3284 35.493 25.0603C36.9736 26.4834 37.3336 28.8543 36.1072 30.4626C34.3665 32.7441 29.6934 33.3182 29.6934 37.1026C29.6934 37.9677 29.5806 37.8165 31.4212 37.8165C31.799 37.8165 31.7248 37.384 31.7248 37.1026C31.7248 33.9969 38.8734 34.0149 38.8734 28.1916C38.8724 22.5279 31.714 19.6694 27.5412 23.6802ZM31.6712 39.4785C30.8009 38.6419 29.3421 39.2579 29.3421 40.4044C29.3421 41.5508 30.8009 42.1668 31.6712 41.3303C32.2073 40.816 32.2073 39.9937 31.6712 39.4785Z" fill="black"/>
</svg>
