<svg width="24" height="18" viewBox="0 0 24 18" fill="none" xmlns="http://www.w3.org/2000/svg">
<path d="M13.5 15C14.3284 15 15 15.6716 15 16.5C15 17.3284 14.3284 18 13.5 18H10.5C9.67157 18 9 17.3284 9 16.5C9 15.6716 9.67157 15 10.5 15H13.5ZM18 7.5C18.8284 7.5 19.5 8.17157 19.5 9C19.5 9.82843 18.8284 10.5 18 10.5H6C5.17157 10.5 4.5 9.82843 4.5 9C4.5 8.17157 5.17157 7.5 6 7.5H18ZM22.5 0C23.3284 0 24 0.671572 24 1.5C24 2.32843 23.3284 3 22.5 3H1.5C0.671572 3 0 2.32843 0 1.5C0 0.671572 0.671572 0 1.5 0H22.5Z" fill="white"/>
</svg>
