<svg width="17" height="17" viewBox="0 0 17 17" fill="none" xmlns="http://www.w3.org/2000/svg">
<path d="M6.53324 4.29545H13.39C14.1254 4.29545 14.7942 4.59588 15.2785 5.08082C15.7628 5.5651 16.0639 6.23323 16.0639 6.96934V13.8261C16.0639 14.5615 15.7635 15.2303 15.2785 15.7146C14.7943 16.1989 14.1261 16.5 13.39 16.5H6.53324C5.79784 16.5 5.12907 16.1996 4.64473 15.7146C4.16044 15.2304 3.85936 14.5622 3.85936 13.8261V6.96934C3.85936 6.23394 4.15979 5.56517 4.64473 5.08082C5.12901 4.59654 5.79714 4.29545 6.53324 4.29545ZM2.48415 11.9435C2.69042 11.9627 2.8416 12.1459 2.82238 12.3522C2.80316 12.5585 2.61995 12.7096 2.41368 12.6904C1.7353 12.6238 1.12931 12.3016 0.694402 11.8218C0.263287 11.3458 0 10.7174 0 10.0307V3.17389C0 2.43849 0.300431 1.76971 0.785368 1.28537C1.26965 0.801087 1.93778 0.5 2.67389 0.5H9.53067C10.2046 0.5 10.8221 0.752398 11.2942 1.16749C11.7702 1.58644 12.0969 2.17385 12.1814 2.83561C12.2077 3.04123 12.0617 3.22892 11.856 3.25455C11.6504 3.28082 11.4627 3.13476 11.4371 2.92913C11.3769 2.45638 11.1411 2.03487 10.7965 1.73187C10.4583 1.43399 10.0143 1.25206 9.53068 1.25206H2.6739C2.14605 1.25206 1.66626 1.46794 1.31778 1.81642C0.9693 2.1649 0.753423 2.6447 0.753423 3.17254V10.0293C0.753423 10.5245 0.942389 10.9767 1.25117 11.3175C1.56377 11.6622 1.99874 11.8941 2.48494 11.9421L2.48415 11.9435ZM13.3908 5.04817H6.53406C6.00687 5.04817 5.52642 5.26405 5.17794 5.61253C4.8301 5.96101 4.61358 6.44081 4.61358 6.96865V13.8254C4.61358 14.3526 4.82946 14.8331 5.17794 15.1815C5.52642 15.53 6.00623 15.7459 6.53406 15.7459H13.3908C13.9187 15.7459 14.3985 15.53 14.747 15.1815C15.0954 14.8331 15.3113 14.3533 15.3113 13.8254V6.96865C15.3113 6.44079 15.0954 5.96101 14.747 5.61253C14.3985 5.26468 13.9187 5.04817 13.3908 5.04817Z" fill="#006699"/>
</svg>
