<svg width="16" height="16" viewBox="0 0 16 16" fill="rgba(119, 126, 145, 1)" xmlns="http://www.w3.org/2000/svg">
<path d="M4.79995 8.0002C4.79995 6.23288 6.23264 4.8002 7.99995 4.8002C9.04635 4.8002 9.97539 5.3016 10.5606 6.08066C10.826 6.43396 11.3275 6.50524 11.6807 6.23985C12.034 5.9745 12.1052 5.473 11.8399 5.11973C10.9656 3.95567 9.57083 3.2002 7.99995 3.2002C5.34898 3.2002 3.19995 5.34923 3.19995 8.0002C3.19995 10.6512 5.34898 12.8002 7.99995 12.8002C9.57083 12.8002 10.9656 12.0448 11.8399 10.8807C12.1052 10.5274 12.034 10.0259 11.6807 9.76052C11.3275 9.49516 10.826 9.56644 10.5606 9.91972C9.97539 10.6988 9.04635 11.2002 7.99995 11.2002C6.23264 11.2002 4.79995 9.76748 4.79995 8.0002Z" fill="rgba(119, 126, 145, 1)"/>
<path fill-rule="evenodd" clip-rule="evenodd" d="M8 0C3.58172 0 0 3.58172 0 8C0 12.4182 3.58172 16 8 16C12.4182 16 16 12.4182 16 8C16 3.58172 12.4182 0 8 0ZM1.6 8C1.6 4.46538 4.46538 1.6 8 1.6C11.5346 1.6 14.4 4.46538 14.4 8C14.4 11.5346 11.5346 14.4 8 14.4C4.46538 14.4 1.6 11.5346 1.6 8Z" fill="rgba(119, 126, 145, 1)"/>
</svg>
