<svg width="20" height="21" viewBox="0 0 20 21" fill="none" xmlns="http://www.w3.org/2000/svg">
<path d="M9.99998 5.17358C8.4972 5.17358 7.27475 6.36824 7.27475 7.83685V8.72461C6.77312 8.72461 6.36633 9.12214 6.36633 9.61236V14.0511C6.36633 14.5414 6.77312 14.9389 7.27475 14.9389H12.7252C13.2268 14.9389 13.6336 14.5414 13.6336 14.0511V9.61236C13.6336 9.12214 13.2268 8.72461 12.7252 8.72461V7.83685C12.7252 6.36824 11.5028 5.17358 9.99998 5.17358ZM9.09157 8.72461V7.83685C9.09157 7.34743 9.49918 6.94909 9.99998 6.94909C10.5008 6.94909 10.9084 7.34743 10.9084 7.83685V8.72461H9.09157Z" fill="#3B4856"/>
<path d="M17.0127 3.54368C13.5738 0.232797 8.28122 -0.141747 4.4231 2.39581L4.41193 0.940516C4.41002 0.695407 4.20518 0.498236 3.95436 0.500012L3.04595 0.506492C2.79505 0.508268 2.5932 0.708546 2.59511 0.953655L2.62054 4.27617C2.62318 4.63553 2.84719 4.95761 3.18739 5.09246C3.5285 5.22731 3.91794 5.14883 4.17611 4.89263C7.34183 1.75512 12.5275 1.71739 15.7379 4.80856C18.1886 7.16812 18.8576 10.716 17.4653 13.7586C17.3662 13.9752 17.4474 14.2276 17.6636 14.3356L18.4742 14.7404C18.704 14.8551 18.9945 14.7627 19.1011 14.5332C20.8334 10.8039 20.0219 6.44052 17.0127 3.54368Z" fill="#3B4856"/>
<path d="M16.8126 15.9076C16.4711 15.7728 16.0821 15.8513 15.8239 16.1075C12.6596 19.2462 7.47298 19.2831 4.2621 16.1915C1.81148 13.832 1.14243 10.2841 2.53476 7.24155C2.63386 7.02494 2.55265 6.77255 2.33645 6.66451L1.52578 6.25969C1.29605 6.14499 1.00554 6.23741 0.898887 6.46689C-0.833364 10.1961 -0.0218792 14.5595 2.98733 17.4563C6.42621 20.7672 11.7188 21.1413 15.5769 18.6042L15.5881 20.0595C15.59 20.3046 15.7949 20.5018 16.0456 20.5L16.9541 20.4935C17.205 20.4917 17.4068 20.2915 17.4049 20.0464L17.3795 16.7238C17.3769 16.3646 17.1528 16.0425 16.8126 15.9076Z" fill="#3B4856"/>
</svg>
