<svg width="64" height="65" viewBox="0 0 64 65" fill="none" xmlns="http://www.w3.org/2000/svg">
<path d="M53.4184 3H10.5808C4.74724 3 0 7.74645 0 13.5808V38.8942C0 44.7277 4.74724 49.475 10.5808 49.475H28.1051C29.6453 49.475 30.8983 48.2227 30.8983 46.6825C30.8983 45.1431 29.6437 43.89 28.1043 43.89H10.5792C7.82449 43.89 5.5842 41.6489 5.5842 38.8934V26.1093H58.4135V31.1059C58.4135 32.6461 59.6665 33.8983 61.2067 33.8983C62.7461 33.8983 64 32.6461 64 31.1059V13.5808C63.9992 7.74724 59.252 3 53.4184 3ZM10.5792 8.58341H53.4176C55.8845 8.58341 57.9399 10.3808 58.3411 12.7352H5.65421C6.05538 10.3808 8.11239 8.58341 10.5792 8.58341Z" fill="black"/>
<path d="M62.439 48.0148L60.4017 46.3456C60.4135 46.1379 60.4222 45.92 60.4222 45.7076C60.4222 45.4913 60.4151 45.2734 60.4017 45.065L62.4375 43.4005C63.0392 42.9096 63.2909 42.1112 63.0801 41.3647C62.358 38.7909 60.9854 36.4129 59.1069 34.4928C58.5657 33.9398 57.7555 33.755 57.031 34.0295L54.5469 34.9624C54.1827 34.7304 53.8106 34.5164 53.4307 34.3198L53.0004 31.7302C52.8761 30.9695 52.309 30.3528 51.5593 30.1625C48.8856 29.4797 46.2788 29.4813 43.598 30.1578C42.8491 30.3528 42.2812 30.9633 42.1569 31.7302L41.7282 34.3158C41.3475 34.5148 40.973 34.7304 40.6112 34.9624L38.1318 34.0303C37.4112 33.7605 36.5986 33.939 36.0559 34.4897C34.1806 36.4051 32.8064 38.783 32.0772 41.3655C31.8695 42.112 32.1173 42.9104 32.7183 43.4013L34.7564 45.0705C34.7446 45.2781 34.7375 45.496 34.7375 45.7084C34.7375 45.9208 34.7446 46.1387 34.7564 46.3464L32.7191 48.0108C32.1173 48.5017 31.8656 49.3001 32.0764 50.0466C32.8024 52.6291 34.1767 55.0054 36.0551 56.9224C36.5947 57.477 37.4104 57.6571 38.1294 57.3818L40.6128 56.4489C40.9793 56.6841 41.349 56.8965 41.7298 57.0955L42.1585 59.6811C42.2827 60.4465 42.8499 61.0608 43.5995 61.2535C44.9439 61.5957 46.2851 61.7719 47.5814 61.7719C48.8809 61.7719 50.2174 61.5973 51.5617 61.2535C52.3106 61.0632 52.8785 60.4481 53.0028 59.6858L53.4331 57.0963C53.813 56.8973 54.1882 56.6849 54.5493 56.4497L57.035 57.3826C57.7571 57.6611 58.5736 57.4739 59.1077 56.9232C60.9846 54.9992 62.3572 52.6212 63.0809 50.0474C63.2878 49.3009 63.04 48.5056 62.439 48.0148ZM47.5743 49.603C45.4261 49.603 43.6798 47.8574 43.6798 45.7084C43.6798 43.5594 45.4269 41.8139 47.5743 41.8139C49.7218 41.8139 51.4689 43.5594 51.4689 45.7084C51.4689 47.8574 49.7226 49.603 47.5743 49.603Z" fill="black"/>
</svg>
